<svg width="217" height="168" viewBox="0 0 217 168" fill="none" xmlns="http://www.w3.org/2000/svg">
<path opacity="0.45" d="M108.5 157.809C163.136 157.809 207.426 124.645 207.426 83.7353C207.426 42.8257 163.136 9.6618 108.5 9.6618C53.8644 9.6618 9.57349 42.8257 9.57349 83.7353C9.57349 124.645 53.8644 157.809 108.5 157.809Z" fill="#E8F5D8"/>
<path opacity="0.3" d="M63.8235 109.5C95.5474 109.5 121.265 86.4295 121.265 57.9706C121.265 29.5117 95.5474 6.44116 63.8235 6.44116C32.0996 6.44116 6.38232 29.5117 6.38232 57.9706C6.38232 86.4295 32.0996 109.5 63.8235 109.5Z" fill="#CBE2AF"/>
<path opacity="0.25" d="M159.559 154.588C187.758 154.588 210.618 134.402 210.618 109.5C210.618 84.5985 187.758 64.4118 159.559 64.4118C131.36 64.4118 108.5 84.5985 108.5 109.5C108.5 134.402 131.36 154.588 159.559 154.588Z" fill="#A8C885"/>
<path opacity="0.6" d="M25.5294 122.382L31.9118 109.5L191.471 103.059L197.853 122.382H25.5294Z" fill="#8AB868"/>
<path opacity="0.95" d="M39.1304 97.0274L32.1086 97.4016C31.5798 97.4297 31.1733 97.8845 31.2008 98.4173L32.9246 131.861C32.9521 132.394 33.403 132.803 33.9319 132.775L40.9537 132.401C41.4826 132.373 41.889 131.918 41.8615 131.385L40.1377 97.9411C40.1102 97.4083 39.6593 96.9992 39.1304 97.0274Z" fill="#F4FCED"/>
<path opacity="0.95" d="M49.4941 99.7043L42.4731 100.078C41.9443 100.107 41.5379 100.561 41.5654 101.094L43.1233 131.322C43.1508 131.855 43.6017 132.264 44.1304 132.236L51.1515 131.862C51.6802 131.834 52.0866 131.379 52.0591 130.846L50.5013 100.618C50.4738 100.085 50.0229 99.6761 49.4941 99.7043Z" fill="#F8FDF4"/>
<path opacity="0.95" d="M59.4429 94.3406L52.4207 94.7148C51.8918 94.743 51.4853 95.1977 51.5128 95.7305L53.3196 130.783C53.3471 131.316 53.7981 131.725 54.3269 131.697L61.3492 131.322C61.8781 131.294 62.2845 130.839 62.257 130.307L60.4502 95.2543C60.4228 94.7215 59.9718 94.3124 59.4429 94.3406Z" fill="#F0FAEB"/>
<path opacity="0.95" d="M69.8067 97.0174L62.7853 97.3916C62.2565 97.4198 61.8501 97.8746 61.8775 98.4074L63.5184 130.243C63.5459 130.776 63.9968 131.185 64.5256 131.157L71.547 130.783C72.0758 130.755 72.4822 130.3 72.4548 129.767L70.8139 97.9311C70.7865 97.3983 70.3355 96.9893 69.8067 97.0174Z" fill="#F4FCED"/>
<path opacity="0.95" d="M79.7553 91.6538L72.7327 92.028C72.2038 92.0562 71.7973 92.511 71.8248 93.0438L73.7146 129.704C73.742 130.237 74.193 130.646 74.7219 130.618L81.7446 130.244C82.2735 130.215 82.68 129.761 82.6525 129.228L80.7627 92.5676C80.7352 92.0348 80.2842 91.6257 79.7553 91.6538Z" fill="#F8FDF4"/>
<path opacity="0.95" d="M90.1524 94.9739L83.1307 95.348C82.6019 95.3762 82.1955 95.831 82.2229 96.3638L83.9136 129.165C83.941 129.698 84.392 130.107 84.9208 130.078L91.9425 129.704C92.4713 129.676 92.8777 129.221 92.8503 128.689L91.1596 95.8876C91.1322 95.3548 90.6812 94.9457 90.1524 94.9739Z" fill="#F0FAEB"/>
<path opacity="0.95" d="M100.284 93.148L93.2617 93.5222C92.7329 93.5503 92.3265 94.0051 92.3539 94.5379L94.111 128.625C94.1384 129.158 94.5894 129.567 95.1182 129.539L102.14 129.165C102.669 129.137 103.076 128.682 103.048 128.149L101.291 94.0617C101.264 93.5289 100.813 93.1198 100.284 93.148Z" fill="#F4FCED"/>
<path opacity="0.95" d="M110.648 95.8248L103.626 96.199C103.098 96.2272 102.691 96.6819 102.719 97.2147L104.31 128.086C104.337 128.619 104.788 129.028 105.317 129L112.338 128.626C112.867 128.597 113.273 128.143 113.246 127.61L111.655 96.7385C111.627 96.2057 111.176 95.7966 110.648 95.8248Z" fill="#F8FDF4"/>
<path opacity="0.95" d="M120.596 90.4612L113.574 90.8354C113.045 90.8636 112.638 91.3183 112.666 91.8512L114.506 127.547C114.533 128.079 114.984 128.489 115.513 128.46L122.536 128.086C123.065 128.058 123.471 127.603 123.444 127.07L121.604 91.3749C121.576 90.8421 121.125 90.433 120.596 90.4612Z" fill="#F0FAEB"/>
<path opacity="0.95" d="M130.977 93.4596L123.955 93.8338C123.426 93.862 123.02 94.3168 123.047 94.8496L124.705 127.007C124.732 127.54 125.183 127.949 125.712 127.921L132.734 127.547C133.262 127.519 133.669 127.064 133.641 126.531L131.984 94.3733C131.956 93.8405 131.505 93.4315 130.977 93.4596Z" fill="#F4FCED"/>
<path opacity="0.95" d="M141.042 90.3473L134.02 90.7214C133.491 90.7496 133.084 91.2044 133.112 91.7372L134.902 126.468C134.929 127.001 135.38 127.41 135.909 127.382L142.931 127.007C143.46 126.979 143.867 126.524 143.839 125.992L142.049 91.261C142.022 90.7282 141.571 90.3191 141.042 90.3473Z" fill="#F8FDF4"/>
<path opacity="0.95" d="M151.455 93.989L144.434 94.3632C143.905 94.3913 143.499 94.8461 143.526 95.3789L145.101 125.929C145.128 126.461 145.579 126.87 146.108 126.842L153.129 126.468C153.658 126.44 154.064 125.985 154.037 125.452L152.462 94.9027C152.435 94.3699 151.984 93.9608 151.455 93.989Z" fill="#F0FAEB"/>
<path opacity="0.95" d="M161.52 90.8766L154.498 91.2508C153.97 91.279 153.563 91.7337 153.591 92.2666L155.298 125.389C155.325 125.922 155.776 126.331 156.305 126.303L163.327 125.929C163.856 125.9 164.262 125.446 164.235 124.913L162.527 91.7903C162.5 91.2575 162.049 90.8484 161.52 90.8766Z" fill="#F4FCED"/>
<path opacity="0.95" d="M171.602 88.086L164.579 88.4601C164.05 88.4883 163.644 88.9431 163.671 89.4759L165.495 124.85C165.522 125.383 165.973 125.792 166.502 125.764L173.525 125.389C174.053 125.361 174.46 124.906 174.432 124.374L172.609 88.9997C172.582 88.4669 172.131 88.0578 171.602 88.086Z" fill="#F8FDF4"/>
<path d="M42.3118 96.8589L38.482 97.063C37.9533 97.0912 37.5469 97.5459 37.5743 98.0787L38.5688 117.373C38.5962 117.906 39.0471 118.315 39.5759 118.287L43.4057 118.083C43.9345 118.055 44.3409 117.6 44.3134 117.067L43.319 97.7726C43.2915 97.2398 42.8406 96.8307 42.3118 96.8589Z" fill="#4E7235"/>
<path d="M52.6757 99.5357L48.8465 99.7397C48.3178 99.7679 47.9115 100.223 47.9389 100.755L48.8006 117.477C48.8281 118.01 49.279 118.419 49.8077 118.391L53.6368 118.187C54.1655 118.159 54.5719 117.704 54.5444 117.171L53.6827 100.449C53.6553 99.9166 53.2044 99.5075 52.6757 99.5357Z" fill="#3D5E28"/>
<path d="M72.7386 92.0247L68.9084 92.2288C68.3796 92.2569 67.9731 92.7117 68.0006 93.2445L69.0946 114.469C69.1221 115.002 69.573 115.411 70.1019 115.382L73.9321 115.178C74.4609 115.15 74.8673 114.695 74.8399 114.163L73.7459 92.9384C73.7184 92.4056 73.2674 91.9965 72.7386 92.0247Z" fill="#4E7235"/>
<path d="M83.1359 95.3447L79.3064 95.5488C78.7776 95.5769 78.3713 96.0317 78.3987 96.5645L79.3268 114.573C79.3542 115.105 79.8051 115.514 80.3339 115.486L84.1634 115.282C84.6921 115.254 85.0985 114.799 85.071 114.266L84.1429 96.2584C84.1155 95.7256 83.6646 95.3165 83.1359 95.3447Z" fill="#3D5E28"/>
<path d="M93.2674 93.5188L89.4375 93.7229C88.9087 93.7511 88.5023 94.2059 88.5298 94.7387L89.5574 114.676C89.5848 115.209 90.0358 115.618 90.5646 115.59L94.3945 115.386C94.9233 115.358 95.3297 114.903 95.3023 114.37L94.2746 94.4325C94.2472 93.8997 93.7962 93.4906 93.2674 93.5188Z" fill="#4E7235"/>
<path d="M113.829 95.6563L110 95.8604C109.471 95.8885 109.065 96.3433 109.092 96.8761L109.987 114.241C110.015 114.774 110.465 115.183 110.994 115.155L114.824 114.951C115.352 114.922 115.759 114.468 115.731 113.935L114.836 96.57C114.809 96.0372 114.358 95.6281 113.829 95.6563Z" fill="#3D5E28"/>
<path d="M123.778 90.2926L119.947 90.4967C119.418 90.5249 119.012 90.9797 119.039 91.5125L120.167 113.38C120.194 113.913 120.645 114.322 121.174 114.294L125.004 114.09C125.533 114.061 125.94 113.607 125.912 113.074L124.785 91.2063C124.758 90.6735 124.307 90.2644 123.778 90.2926Z" fill="#4E7235"/>
<path d="M144.223 90.1788L140.393 90.3829C139.864 90.4111 139.458 90.8658 139.485 91.3986L140.546 111.98C140.573 112.512 141.024 112.922 141.553 112.893L145.383 112.689C145.912 112.661 146.319 112.206 146.291 111.674L145.23 91.0925C145.203 90.5597 144.752 90.1506 144.223 90.1788Z" fill="#3D5E28"/>
<path d="M154.637 93.8204L150.808 94.0245C150.279 94.0527 149.873 94.5074 149.9 95.0402L150.778 112.083C150.806 112.616 151.257 113.025 151.785 112.997L155.615 112.793C156.143 112.765 156.55 112.31 156.522 111.777L155.644 94.7341C155.617 94.2013 155.166 93.7922 154.637 93.8204Z" fill="#4E7235"/>
<path d="M164.702 90.7081L160.872 90.9122C160.343 90.9404 159.937 91.3951 159.964 91.9279L160.942 110.901C160.97 111.434 161.42 111.843 161.949 111.815L165.779 111.61C166.308 111.582 166.714 111.128 166.687 110.595L165.709 91.6218C165.681 91.089 165.23 90.6799 164.702 90.7081Z" fill="#3D5E28"/>
<path opacity="0.7" d="M24.4643 19.9028L22.6148 19.4027C22.1041 19.2646 21.5791 19.5705 21.4423 20.0859L16.9822 36.8845C16.8454 37.3999 17.1485 37.9297 17.6592 38.0678L19.5086 38.5679C20.0194 38.706 20.5443 38.4002 20.6811 37.8847L25.1412 21.0862C25.2781 20.5707 24.975 20.041 24.4643 19.9028Z" fill="#F4FCED"/>
<path opacity="0.6" d="M28.3755 12.8616L27.1115 13.0409C26.5879 13.1152 26.2231 13.6037 26.2967 14.1321L28.0288 26.5702C28.1023 27.0986 28.5864 27.4668 29.11 27.3925L30.3741 27.2132C30.8977 27.1389 31.2625 26.6504 31.1889 26.122L29.4568 13.6839C29.3832 13.1555 28.8991 12.7873 28.3755 12.8616Z" fill="#CBE2AF"/>
<path opacity="0.65" d="M192.633 22.844L190.748 22.5085C190.227 22.4158 189.73 22.7667 189.639 23.2922L186.923 38.8333C186.831 39.3588 187.179 39.8599 187.7 39.9526L189.585 40.2882C190.106 40.3808 190.603 40.0299 190.695 39.5044L193.41 23.9633C193.502 23.4378 193.154 22.9367 192.633 22.844Z" fill="#F0FAEB"/>
<path opacity="0.5" d="M198.108 16.1098L196.859 16.3776C196.342 16.4886 196.012 17.0016 196.122 17.5236L198.378 28.2343C198.487 28.7562 198.996 29.0894 199.513 28.9785L200.762 28.7106C201.279 28.5997 201.609 28.0866 201.499 27.5647L199.243 16.854C199.133 16.332 198.625 15.9988 198.108 16.1098Z" fill="#A8C885"/>
<path opacity="0.6" d="M19.1471 70.853C38.2942 51.5294 57.4412 90.1765 76.5883 64.4118C95.7353 38.6471 114.882 83.7353 134.029 61.1912C153.177 38.6471 172.324 80.5147 197.853 57.9706" stroke="#6A9848" stroke-width="0.805147" stroke-linecap="round"/>
<path opacity="0.5" d="M19.1471 77.2941C41.4853 61.1912 60.6324 96.6177 82.9706 70.853C105.309 45.0883 124.456 90.1765 146.794 64.4118C165.941 41.8677 181.897 83.7353 197.853 64.4118" stroke="#CBE2AF" stroke-width="0.483088" stroke-linecap="round"/>
<path opacity="0.4" d="M49.4632 36.3926C52.6356 36.3926 55.2073 33.7972 55.2073 30.5956C55.2073 27.394 52.6356 24.7985 49.4632 24.7985C46.2908 24.7985 43.7191 27.394 43.7191 30.5956C43.7191 33.7972 46.2908 36.3926 49.4632 36.3926Z" fill="#8AB868"/>
<path opacity="0.6" d="M49.4633 33.8162C51.2257 33.8162 52.6544 32.3743 52.6544 30.5956C52.6544 28.8169 51.2257 27.375 49.4633 27.375C47.7008 27.375 46.2721 28.8169 46.2721 30.5956C46.2721 32.3743 47.7008 33.8162 49.4633 33.8162Z" fill="#CBE2AF"/>
<path opacity="0.35" d="M156.368 28.6632C158.835 28.6632 160.835 26.6445 160.835 24.1544C160.835 21.6642 158.835 19.6456 156.368 19.6456C153.9 19.6456 151.9 21.6642 151.9 24.1544C151.9 26.6445 153.9 28.6632 156.368 28.6632Z" fill="#6A9848"/>
<path opacity="0.7" d="M156.368 26.4088C157.601 26.4088 158.601 25.3995 158.601 24.1544C158.601 22.9093 157.601 21.9 156.368 21.9C155.134 21.9 154.134 22.9093 154.134 24.1544C154.134 25.3995 155.134 26.4088 156.368 26.4088Z" fill="#D8EDBE"/>
<path opacity="0.45" d="M102.118 19.3236C103.88 19.3236 105.309 17.8817 105.309 16.103C105.309 14.3243 103.88 12.8824 102.118 12.8824C100.355 12.8824 98.9265 14.3243 98.9265 16.103C98.9265 17.8817 100.355 19.3236 102.118 19.3236Z" fill="#A8C885"/>
<path opacity="0.25" d="M191.471 58.6147C195.348 58.6147 198.491 55.4425 198.491 51.5294C198.491 47.6163 195.348 44.4441 191.471 44.4441C187.593 44.4441 184.45 47.6163 184.45 51.5294C184.45 55.4425 187.593 58.6147 191.471 58.6147Z" fill="#CBE2AF"/>
<path opacity="0.2" d="M25.5294 101.771C28.3493 101.771 30.6353 99.4636 30.6353 96.6177C30.6353 93.7718 28.3493 91.4647 25.5294 91.4647C22.7095 91.4647 20.4235 93.7718 20.4235 96.6177C20.4235 99.4636 22.7095 101.771 25.5294 101.771Z" fill="#8AB868"/>
<path opacity="0.35" d="M12.7646 49.9191L63.8234 47.6647" stroke="#6A9848" stroke-width="0.322059"/>
<path opacity="0.35" d="M12.7646 53.1397L63.8234 50.8853" stroke="#6A9848" stroke-width="0.322059"/>
<path opacity="0.35" d="M12.7646 56.3603L63.8234 54.1059" stroke="#6A9848" stroke-width="0.322059"/>
<path opacity="0.35" d="M153.177 45.0882L204.235 47.6647" stroke="#6A9848" stroke-width="0.322059"/>
<path opacity="0.35" d="M153.177 48.3088L204.235 50.8853" stroke="#6A9848" stroke-width="0.322059"/>
<path opacity="0.35" d="M153.177 51.5294L204.235 54.1059" stroke="#6A9848" stroke-width="0.322059"/>
<path opacity="0.5" d="M82.9705 141.062C86.8479 141.062 89.9911 139.908 89.9911 138.485C89.9911 137.062 86.8479 135.909 82.9705 135.909C79.0932 135.909 75.95 137.062 75.95 138.485C75.95 139.908 79.0932 141.062 82.9705 141.062Z" fill="#6A9848"/>
<path opacity="0.4" d="M108.5 142.672C112.377 142.672 115.521 141.519 115.521 140.096C115.521 138.673 112.377 137.519 108.5 137.519C104.623 137.519 101.479 138.673 101.479 140.096C101.479 141.519 104.623 142.672 108.5 142.672Z" fill="#8AB868"/>
<path opacity="0.5" d="M134.029 141.062C137.907 141.062 141.05 139.908 141.05 138.485C141.05 137.062 137.907 135.909 134.029 135.909C130.152 135.909 127.009 137.062 127.009 138.485C127.009 139.908 130.152 141.062 134.029 141.062Z" fill="#6A9848"/>
<path opacity="0.12" d="M108.5 152.012C150.798 152.012 185.088 150.281 185.088 148.147C185.088 146.013 150.798 144.282 108.5 144.282C66.2015 144.282 31.9117 146.013 31.9117 148.147C31.9117 150.281 66.2015 152.012 108.5 152.012Z" fill="#4E7235"/>
<path opacity="0.55" d="M54.6154 47.8452C56.0545 47.5891 57.0797 46.572 56.9052 45.5735C56.7308 44.5751 55.4228 43.9732 53.9837 44.2293C52.5446 44.4854 51.5194 45.5024 51.6939 46.5009C51.8683 47.4994 53.1763 48.1012 54.6154 47.8452Z" fill="#5A8040"/>
<path opacity="0.55" d="M56.4839 45.0882V37.3588" stroke="#5A8040" stroke-width="0.966177" stroke-linecap="round"/>
<path opacity="0.55" d="M56.4839 37.3588C59.1274 38.325 59.7883 40.2574 58.1361 41.5456" stroke="#5A8040" stroke-width="0.805147" stroke-linecap="round"/>
<path opacity="0.7" d="M119.553 57.2691C121.092 56.8818 122.132 55.7284 121.876 54.6929C121.621 53.6574 120.166 53.1319 118.627 53.5192C117.087 53.9065 116.047 55.0598 116.303 56.0954C116.559 57.1309 118.014 57.6564 119.553 57.2691Z" fill="#3D5E28"/>
<path opacity="0.7" d="M121.643 53.7839V45.7324" stroke="#3D5E28" stroke-width="0.805147" stroke-linecap="round"/>
<path opacity="0.7" d="M130.403 55.9808C131.942 55.5935 132.982 54.4402 132.726 53.4046C132.471 52.3691 131.015 51.8436 129.476 52.2309C127.937 52.6182 126.897 53.7716 127.153 54.8071C127.409 55.8426 128.864 56.3681 130.403 55.9808Z" fill="#3D5E28"/>
<path opacity="0.7" d="M132.493 52.4957V45.7324" stroke="#3D5E28" stroke-width="0.805147" stroke-linecap="round"/>
<path opacity="0.7" d="M121.643 45.7324H132.493" stroke="#3D5E28" stroke-width="0.966177" stroke-linecap="round"/>
<path opacity="0.75" d="M175.77 81.7371C177.302 81.3228 178.322 80.1512 178.048 79.1204C177.775 78.0895 176.311 77.5898 174.779 78.0041C173.246 78.4184 172.226 79.5899 172.5 80.6208C172.774 81.6516 174.238 82.1514 175.77 81.7371Z" fill="#3D5E28"/>
<path opacity="0.75" d="M177.827 78.5823V68.9205" stroke="#3D5E28" stroke-width="0.805147" stroke-linecap="round"/>
<path opacity="0.75" d="M177.827 68.9205C181.657 70.2088 182.933 72.7852 181.018 74.7176" stroke="#3D5E28" stroke-width="0.644118" stroke-linecap="round"/>
<path opacity="0.45" d="M113.085 87.5718C115.529 87.2253 117.33 85.6592 117.11 84.074C116.889 82.4888 114.729 81.4846 112.286 81.8312C109.842 82.1777 108.041 83.7438 108.261 85.329C108.482 86.9142 110.642 87.9184 113.085 87.5718Z" fill="#F4FCED"/>
<path opacity="0.45" d="M116.834 83.0912V71.8191" stroke="#F4FCED" stroke-width="0.805147" stroke-linecap="round"/>
</svg>
