<svg width="396" height="272" viewBox="0 0 396 272" fill="none" xmlns="http://www.w3.org/2000/svg">
<g clip-path="url(#clip0_157_11856)">
<path d="M227 59C124.409 55.6285 72.5579 48.9277 -0.5 20.5V161.5L103.5 170.5L77 199.5C160.071 215.748 207.737 215.781 294 205.5L249.5 251.5L396 221V75C312.395 94.1687 266.938 98.7103 188 97.5L227 59Z" fill="url(#paint0_linear_157_11856)"/>
<path d="M35.108 210.297C32.4302 211.037 29.8952 210.729 27.5028 209.373C25.1105 208.016 23.5443 205.999 22.8044 203.321C22.7231 203.027 22.6551 202.728 22.6004 202.426C22.5458 202.125 22.5046 201.819 22.4768 201.51C22.3577 201.6 22.2081 201.685 22.0281 201.763C21.848 201.842 21.6911 201.9 21.5572 201.937C20.4325 202.247 19.3746 202.122 18.3835 201.56C17.3924 200.998 16.7415 200.154 16.4307 199.03C16.12 197.905 16.2255 196.853 16.7473 195.873C17.2691 194.893 18.0923 194.247 19.217 193.937C20.1006 193.692 20.9657 193.72 21.8122 194.019C22.6587 194.319 23.3365 194.816 23.8456 195.511C24.5073 194.464 25.3406 193.542 26.3454 192.745C27.3503 191.949 28.4954 191.373 29.7807 191.018L45.8471 186.578C46.3024 186.453 46.7265 186.501 47.1195 186.724C47.5125 186.947 47.772 187.286 47.8977 187.741L48.7856 190.954C48.9114 191.41 48.8629 191.834 48.64 192.227C48.4172 192.62 48.0781 192.879 47.6229 193.005L41.1963 194.781L42.0842 197.994C42.8241 200.672 42.5158 203.207 41.1593 205.599C39.8028 207.991 37.7857 209.558 35.108 210.297ZM21.9084 198.748C22.1312 198.355 22.1798 197.931 22.054 197.476C21.9282 197.021 21.6688 196.682 21.2758 196.459C20.8827 196.236 20.4586 196.188 20.0034 196.313C19.5482 196.439 19.2091 196.698 18.9863 197.092C18.7634 197.485 18.7149 197.909 18.8407 198.364C18.9665 198.819 19.2259 199.158 19.6189 199.381C20.0119 199.604 20.4361 199.652 20.8913 199.527C21.3465 199.401 21.6855 199.141 21.9084 198.748ZM35.3408 202.3C35.7962 201.497 35.9018 200.653 35.6576 199.77C35.4134 198.886 34.8898 198.217 34.0866 197.761C33.2835 197.306 32.4401 197.2 31.5564 197.444C30.6728 197.688 30.0033 198.212 29.5479 199.015C29.0925 199.818 28.9869 200.662 29.231 201.545C29.4752 202.429 29.9988 203.099 30.802 203.554C31.6051 204.009 32.4485 204.115 33.3322 203.871C34.2159 203.627 34.8854 203.103 35.3408 202.3Z" fill="#693A91"/>
<rect width="5.00056" height="1.66685" rx="0.833426" transform="matrix(-0.869893 -0.49324 -0.49324 0.869893 32.3353 183.858)" fill="#693A91"/>
<rect width="5.00056" height="1.66685" rx="0.833426" transform="matrix(-0.50673 -0.862105 -0.862105 0.50673 36.0669 182.136)" fill="#693A91"/>
<rect width="5.00056" height="1.66685" rx="0.833426" transform="matrix(-0.00778834 -0.99997 -0.99997 0.00778834 40.0566 181.481)" fill="#693A91"/>
<mask id="mask0_157_11856" style="mask-type:alpha" maskUnits="userSpaceOnUse" x="315" y="3" width="64" height="64">
<rect x="315" y="3" width="64" height="64" fill="#D9D9D9"/>
</mask>
<g mask="url(#mask0_157_11856)">
<path d="M331.995 47.2561L335.523 50.7847C335.892 51.1541 336.081 51.6114 336.09 52.1567C336.098 52.7016 335.894 53.1829 335.477 53.6007C335.094 53.9829 334.627 54.1741 334.077 54.1741C333.526 54.1741 333.058 53.9809 332.672 53.5947L326.029 46.9527C325.774 46.6972 325.595 46.4298 325.493 46.1507C325.39 45.8712 325.339 45.5718 325.339 45.2527C325.339 44.9336 325.39 44.6356 325.493 44.3587C325.595 44.0818 325.774 43.8158 326.029 43.5607L332.672 36.918C333.041 36.5487 333.498 36.3598 334.043 36.3514C334.589 36.3429 335.068 36.53 335.482 36.9127C335.896 37.33 336.103 37.8069 336.103 38.3434C336.103 38.8803 335.896 39.3556 335.482 39.7694L331.995 43.2567H343.949C344.515 43.2567 344.99 43.4485 345.374 43.832C345.757 44.2152 345.949 44.6903 345.949 45.2574C345.949 45.8241 345.757 46.2989 345.374 46.6821C344.99 47.0647 344.515 47.2561 343.949 47.2561H331.995ZM353.412 47.3847C352.809 47.3847 352.304 47.1809 351.895 46.7734C351.486 46.3654 351.282 45.8603 351.282 45.258C351.282 44.6554 351.486 44.1498 351.893 43.7414C352.301 43.3325 352.806 43.1281 353.409 43.1281C354.011 43.1281 354.517 43.332 354.926 43.74C355.334 44.1476 355.539 44.6527 355.539 45.2554C355.539 45.8576 355.335 46.3632 354.927 46.772C354.519 47.1805 354.014 47.3847 353.412 47.3847ZM363.001 47.3847C362.399 47.3847 361.893 47.1809 361.485 46.7734C361.076 46.3654 360.872 45.8603 360.872 45.258C360.872 44.6554 361.076 44.1498 361.483 43.7414C361.891 43.3325 362.396 43.1281 362.999 43.1281C363.601 43.1281 364.107 43.332 364.515 43.74C364.924 44.1476 365.128 44.6527 365.128 45.2554C365.128 45.8576 364.924 46.3632 364.517 46.772C364.109 47.1805 363.604 47.3847 363.001 47.3847ZM362.031 26.7434H350.051C349.485 26.7434 349.01 26.5516 348.626 26.1681C348.243 25.7849 348.051 25.3098 348.051 24.7427C348.051 24.1761 348.243 23.7012 348.626 23.3181C349.01 22.9354 349.485 22.744 350.051 22.744H362.005L358.477 19.2154C358.108 18.846 357.919 18.3887 357.91 17.8434C357.902 17.2985 358.106 16.8172 358.523 16.3994C358.906 16.0172 359.373 15.826 359.923 15.826C360.474 15.826 360.942 16.0192 361.328 16.4054L367.971 23.0474C368.226 23.3029 368.405 23.5703 368.507 23.8494C368.61 24.1289 368.661 24.4283 368.661 24.7474C368.661 25.0665 368.61 25.3645 368.507 25.6414C368.405 25.9183 368.229 26.1814 367.979 26.4307L361.303 33.108C360.938 33.4769 360.482 33.6614 359.934 33.6614C359.386 33.6614 358.914 33.4769 358.518 33.108C358.104 32.7112 357.902 32.2358 357.91 31.682C357.919 31.1283 358.122 30.6532 358.518 30.2567L362.031 26.7434ZM331.001 26.8721C330.399 26.8721 329.893 26.6681 329.485 26.2601C329.076 25.8525 328.872 25.3474 328.872 24.7447C328.872 24.1425 329.076 23.6369 329.483 23.228C329.891 22.8196 330.396 22.6154 330.999 22.6154C331.601 22.6154 332.107 22.8192 332.515 23.2267C332.924 23.6347 333.128 24.1398 333.128 24.742C333.128 25.3447 332.924 25.8503 332.517 26.2587C332.109 26.6676 331.604 26.8721 331.001 26.8721ZM340.591 26.8721C339.989 26.8721 339.483 26.6681 339.074 26.2601C338.666 25.8525 338.461 25.3474 338.461 24.7447C338.461 24.1425 338.665 23.6369 339.073 23.228C339.481 22.8196 339.986 22.6154 340.588 22.6154C341.191 22.6154 341.696 22.8192 342.105 23.2267C342.514 23.6347 342.718 24.1398 342.718 24.742C342.718 25.3447 342.514 25.8503 342.107 26.2587C341.699 26.6676 341.194 26.8721 340.591 26.8721Z" fill="#BA94DA"/>
</g>
<circle cx="77" cy="21" r="6" fill="#C8A5E5"/>
<circle cx="228" cy="234" r="8" fill="#F7DAFF"/>
<mask id="mask1_157_11856" style="mask-type:alpha" maskUnits="userSpaceOnUse" x="163" y="226" width="24" height="24">
<rect x="163" y="226" width="24" height="24" fill="#D9D9D9"/>
</mask>
<g mask="url(#mask1_157_11856)">
<path d="M171.296 246.752C170.14 246.253 169.135 245.577 168.279 244.722C167.424 243.867 166.747 242.862 166.248 241.706C165.749 240.55 165.5 239.316 165.5 238.002C165.5 236.688 165.749 235.453 166.248 234.296C166.747 233.14 167.423 232.135 168.278 231.279C169.133 230.424 170.138 229.747 171.294 229.248C172.45 228.749 173.684 228.5 174.998 228.5C176.312 228.5 177.547 228.749 178.704 229.248C179.86 229.747 180.865 230.423 181.721 231.278C182.576 232.133 183.253 233.138 183.752 234.294C184.251 235.45 184.5 236.684 184.5 237.998C184.5 239.312 184.251 240.547 183.752 241.704C183.253 242.86 182.577 243.865 181.722 244.721C180.867 245.576 179.862 246.253 178.706 246.752C177.55 247.251 176.316 247.5 175.002 247.5C173.688 247.5 172.453 247.251 171.296 246.752ZM169.333 243.665L175 238V230C172.767 230 170.875 230.775 169.325 232.325C167.775 233.875 167 235.767 167 238C167 239.067 167.202 240.09 167.605 241.07C168.008 242.05 168.584 242.915 169.333 243.665Z" fill="#E3C2FF"/>
</g>
<path d="M170.344 186.828C168.677 186.828 167.076 186.516 165.539 185.891C164.003 185.266 162.635 184.328 161.437 183.078L160.891 182.531C160.422 182.115 160.122 181.594 159.992 180.969C159.862 180.344 159.927 179.745 160.187 179.172L165.031 166.828L172.297 169.328C172.922 169.536 173.521 169.497 174.094 169.211C174.667 168.924 175.057 168.469 175.266 167.844C175.526 167.271 175.513 166.698 175.227 166.125C174.94 165.552 174.51 165.135 173.937 164.875L166.75 162.453L168.078 159.016L175.656 161.594C176.281 161.802 176.88 161.763 177.453 161.477C178.026 161.19 178.417 160.734 178.625 160.109C178.833 159.536 178.807 158.964 178.547 158.391C178.286 157.818 177.87 157.427 177.297 157.219L169.797 154.641L171.125 151.203L178.937 153.859C179.562 154.12 180.161 154.107 180.734 153.82C181.307 153.534 181.698 153.078 181.906 152.453C182.167 151.828 182.154 151.242 181.867 150.695C181.581 150.148 181.151 149.745 180.578 149.484L172.844 146.906L175.344 140.5C175.76 139.458 176.477 138.664 177.492 138.117C178.508 137.57 179.562 137.427 180.656 137.688L185.187 138.547C186.073 138.703 186.906 138.638 187.687 138.352C188.469 138.065 189.172 137.609 189.797 136.984C190.474 136.255 190.943 135.448 191.203 134.563C191.464 133.677 191.464 132.792 191.203 131.906L190.812 130.734C190.552 129.901 190.513 129.055 190.695 128.195C190.878 127.336 191.281 126.594 191.906 125.969L195.266 122.609C196.151 121.672 197.258 121.203 198.586 121.203C199.914 121.203 201.021 121.646 201.906 122.531L216.047 136.906C217.193 138.104 217.779 139.523 217.805 141.164C217.831 142.805 217.297 144.224 216.203 145.422L217.687 146.906C218 147.271 218.273 147.648 218.508 148.039C218.742 148.43 218.859 148.833 218.859 149.25C218.859 149.615 218.781 149.979 218.625 150.344C218.469 150.708 218.182 151.099 217.766 151.516C217.141 152.089 216.398 152.388 215.539 152.414C214.68 152.44 213.937 152.141 213.312 151.516L211.906 150.031L209.719 152.297L211.125 153.703C211.698 154.276 211.984 155.005 211.984 155.891C211.984 156.776 211.698 157.505 211.125 158.078C210.5 158.651 209.758 158.951 208.898 158.977C208.039 159.003 207.297 158.703 206.672 158.078L205.266 156.75L196.516 165.656L197.844 166.906C198.469 167.531 198.781 168.273 198.781 169.133C198.781 169.992 198.469 170.734 197.844 171.359C197.219 171.932 196.477 172.232 195.617 172.258C194.758 172.284 194.016 171.984 193.391 171.359L192.141 170.031L189.953 172.297L191.203 173.547C191.776 174.12 192.062 174.849 192.062 175.734C192.062 176.62 191.776 177.349 191.203 177.922C190.578 178.495 189.836 178.794 188.977 178.82C188.117 178.846 187.375 178.547 186.75 177.922L185.5 176.75L183.312 178.938L184.562 180.109C185.135 180.734 185.422 181.477 185.422 182.336C185.422 183.195 185.135 183.937 184.562 184.562C183.937 185.135 183.195 185.435 182.336 185.461C181.477 185.487 180.734 185.187 180.109 184.562L178.859 183.312C177.661 184.51 176.346 185.396 174.914 185.969C173.482 186.542 171.958 186.828 170.344 186.828Z" fill="#693A91"/>
</g>
<defs>
<linearGradient id="paint0_linear_157_11856" x1="6.74032e-09" y1="136" x2="396" y2="136" gradientUnits="userSpaceOnUse">
<stop stop-color="#FAE9FF"/>
<stop offset="0.5" stop-color="#F2C7FF"/>
<stop offset="1" stop-color="#FAE9FF"/>
</linearGradient>
<clipPath id="clip0_157_11856">
<rect width="396" height="272" fill="white"/>
</clipPath>
</defs>
</svg>
