<svg width="240" height="163" viewBox="0 0 240 163" fill="none" xmlns="http://www.w3.org/2000/svg">
<path opacity="0.5" d="M19.1304 59.1333C29.5652 53.9127 39.9999 65.0501 50.4347 59.4814C60.8695 53.9127 71.3043 64.354 81.7391 59.1333" stroke="#5BBFB8" stroke-width="0.465552" stroke-linecap="round"/>
<path opacity="0.5" d="M154.783 45.2115C165.217 39.9908 175.652 51.1282 186.087 45.5595C196.522 39.9908 206.957 50.4322 216.348 45.5595" stroke="#5BBFB8" stroke-width="0.465552" stroke-linecap="round"/>
<path opacity="0.45" d="M27.1304 113.08C34.0869 109.6 39.9999 115.169 46.2608 111.688" stroke="#7DD6D0" stroke-width="0.380906" stroke-linecap="round"/>
<path opacity="0.42" d="M149.565 143.708H183.652" stroke="#5BBFB8" stroke-width="0.317422" stroke-dasharray="0.85 0.85"/>
<path opacity="0.42" d="M52.8695 26.7651H77.2173" stroke="#5BBFB8" stroke-width="0.317422" stroke-dasharray="0.85 0.85"/>
<path opacity="0.55" d="M41.0434 21.1964C44.8854 21.1964 48 18.0798 48 14.2354C48 10.391 44.8854 7.27454 41.0434 7.27454C37.2015 7.27454 34.0869 10.391 34.0869 14.2354C34.0869 18.0798 37.2015 21.1964 41.0434 21.1964Z" fill="#6DC8C2"/>
<path opacity="0.45" d="M194.087 26.4171C196.584 26.4171 198.609 24.3914 198.609 21.8925C198.609 19.3936 196.584 17.3679 194.087 17.3679C191.59 17.3679 189.565 19.3936 189.565 21.8925C189.565 24.3914 191.59 26.4171 194.087 26.4171Z" fill="#6DC8C2"/>
<path opacity="0.4" d="M29.2173 130.831C30.9462 130.831 32.3477 129.428 32.3477 127.698C32.3477 125.968 30.9462 124.566 29.2173 124.566C27.4884 124.566 26.0869 125.968 26.0869 127.698C26.0869 129.428 27.4884 130.831 29.2173 130.831Z" fill="#5BBFB8"/>
<path opacity="0.4" d="M206.609 133.615C209.298 133.615 211.478 131.433 211.478 128.742C211.478 126.051 209.298 123.87 206.609 123.87C203.919 123.87 201.739 126.051 201.739 128.742C201.739 131.433 203.919 133.615 206.609 133.615Z" fill="#8ECFCA"/>
<path opacity="0.35" d="M169.739 160.414C171.276 160.414 172.522 159.168 172.522 157.63C172.522 156.092 171.276 154.846 169.739 154.846C168.202 154.846 166.956 156.092 166.956 157.63C166.956 159.168 168.202 160.414 169.739 160.414Z" fill="#6DC8C2"/>
<path opacity="0.52" d="M208.563 6.34668L203.007 8.37033C202.194 8.66618 201.776 9.56493 202.071 10.3778C202.367 11.1906 203.265 11.6097 204.077 11.3138L209.634 9.29018C210.446 8.99433 210.865 8.09558 210.569 7.28275C210.274 6.46993 209.376 6.05083 208.563 6.34668Z" fill="#6DC8C2"/>
<path opacity="0.42" d="M26.7761 43.2684L22.3532 42.3277C21.6955 42.1878 21.0491 42.6079 20.9093 43.2659C20.7695 43.924 21.1893 44.5709 21.847 44.7107L26.2699 45.6515C26.9276 45.7913 27.574 45.3713 27.7138 44.7132C27.8536 44.0551 27.4338 43.4083 26.7761 43.2684Z" fill="#5BBFB8"/>
<path opacity="0.42" d="M36.8695 140.228L41.0434 147.885H32.6956L36.8695 140.228Z" fill="#3BA8A0"/>
<g opacity="0.82">
<path fill-rule="evenodd" clip-rule="evenodd" d="M39.0705 34.5558C39.0705 37.8953 36.3548 40.6025 33.0048 40.6025C29.6547 40.6025 26.939 37.8953 26.939 34.5558C26.939 31.3078 32.6767 22.3876 32.9913 21.9008C32.9985 21.8897 33.0111 21.8897 33.0182 21.9008C33.3329 22.3876 39.0705 31.3078 39.0705 34.5558ZM31.9936 38.664C28.9156 37.9901 29.4423 34.5782 29.4423 34.5782C29.4423 34.5782 30.2828 36.6378 32.3225 37.305C34.3622 37.9721 36.8271 36.9937 36.8271 36.9937C36.8271 36.9937 35.0717 39.3379 31.9936 38.664Z" fill="#2E8B84"/>
</g>
<g opacity="0.75">
<path fill-rule="evenodd" clip-rule="evenodd" d="M72.0784 19.6438C72.2985 18.8388 71.8714 17.1837 71.8714 17.1837C71.8714 17.1837 71.5616 18.532 71.0776 19.0303C70.6646 19.4554 70.1587 19.7502 69.4331 19.8277C70.0264 19.5394 70.4343 18.9382 70.4343 18.2433C70.4343 17.2679 69.6304 16.4771 68.6388 16.4771C67.6471 16.4771 66.8432 17.2679 66.8432 18.2433C66.8432 18.5097 66.9032 18.7624 67.0106 18.9889C66.3903 18.4944 66.2928 17.7017 66.2928 17.7017C66.2928 17.7017 65.6002 20.579 67.5086 21.9325C69.4169 23.286 73.1553 22.1226 73.1553 22.1226C73.1553 22.1226 67.8055 25.8893 63.8411 21.7897C60.4262 18.2583 62.9498 13.609 62.9498 13.609C62.9498 13.609 62.8409 14.0403 62.8409 14.541C62.8409 15.0417 63.1121 15.4226 63.1121 15.4226C63.1121 15.4226 63.9214 13.7158 64.5511 13.0217C65.1472 12.3648 65.8943 11.832 66.5397 11.3718C67.0365 11.0176 67.4729 10.7064 67.7336 10.4147C69.1693 8.8083 68.289 5.88232 68.289 5.88232C68.289 5.88232 69.9074 7.31001 70.3592 9.15387C70.5315 9.85672 70.4207 10.6564 70.3216 11.3716C70.1608 12.5325 70.0308 13.4706 71.1927 13.4097C73.0703 13.3113 71.4387 10.4147 71.4387 10.4147C71.4387 10.4147 75.6979 12.6547 75.3797 16.5724C75.0615 20.49 70.7242 21.3807 70.7242 21.3807C70.7242 21.3807 71.8584 20.4489 72.0784 19.6438Z" fill="#3BA8A0"/>
</g>
<g opacity="0.72">
<path fill-rule="evenodd" clip-rule="evenodd" d="M175.635 10.7749C175.632 10.7652 175.639 10.755 175.649 10.755H181.779C181.786 10.755 181.791 10.7593 181.793 10.7656L184.609 19.8678C184.612 19.8774 184.605 19.8872 184.595 19.8872H180.514C180.509 19.8872 180.505 19.892 180.506 19.8968L182.847 28.141C182.852 28.157 182.831 28.1674 182.821 28.1541L173.725 16.0509C173.718 16.041 173.725 16.0269 173.737 16.0269H177.441C177.446 16.0269 177.45 16.0218 177.448 16.0169L175.635 10.7749Z" fill="#2E8B84"/>
</g>
<g opacity="0.68">
<path fill-rule="evenodd" clip-rule="evenodd" d="M25.0678 76.0094C25.1885 75.9357 25.2909 75.7814 25.3735 75.6099C26.4603 76.0543 27.224 77.1046 27.224 78.3294C27.224 79.9565 25.8761 81.2756 24.2135 81.2756C23.531 81.2756 22.9016 81.0533 22.3966 80.6787C22.231 80.6002 22.0947 80.5248 21.9832 80.4631C21.8102 80.3674 21.6968 80.3047 21.6258 80.3145C21.4182 80.3431 21.4784 80.5343 21.5332 80.7079C21.5704 80.8259 21.6051 80.9358 21.5514 80.9811C21.4953 81.0285 21.3134 80.855 21.1009 80.6523C20.8117 80.3764 20.4657 80.0463 20.3025 80.1454C20.1735 80.2238 20.2988 80.4365 20.4521 80.6969L20.4635 80.7162C20.5282 80.8262 20.6033 80.9383 20.6718 81.0406C20.811 81.2484 20.9231 81.4158 20.867 81.4442C20.7992 81.4784 20.3267 81.1593 19.9284 80.7162C19.7747 80.5452 19.6259 80.3598 19.4875 80.1876V80.1875C19.1846 79.8105 18.9323 79.4963 18.7907 79.5336C18.6203 79.5783 18.7492 79.93 18.9386 80.2684C19.0271 80.4266 19.1313 80.5878 19.2215 80.7273V80.7273C19.3618 80.9443 19.4683 81.109 19.4296 81.1292C19.3775 81.1565 18.9191 80.7091 18.6077 80.1454C18.4227 79.8106 18.2674 79.4405 18.1417 79.141C18.0053 78.8161 17.9038 78.5741 17.8369 78.5497C17.6045 78.4651 17.6045 78.9392 17.6977 79.6234C17.7099 79.7127 17.728 79.8063 17.7503 79.9016C18.6541 82.8277 21.4304 84.9583 24.7153 84.9583C28.7333 84.9583 31.9904 81.7706 31.9904 77.8384C31.9904 74.0958 29.0399 71.0277 25.291 70.7404C25.2958 70.5641 25.3877 70.2145 25.3877 70.2145C25.3877 70.2145 26.0495 68.6122 26.0845 68.2699C26.0868 68.2471 26.0896 68.2224 26.0925 68.1961C26.1337 67.8262 26.2104 67.1384 25.6191 67.1384C25.3032 67.1384 25.1564 67.3735 24.9884 67.6423C24.9239 67.7456 24.8563 67.8538 24.7749 67.9555C24.1881 68.6887 23.2016 69.6042 22.6422 70.092C21.4598 71.1229 20.2997 71.9702 19.6231 72.4644C19.3153 72.6891 19.1077 72.8408 19.0434 72.9035C18.559 73.376 16.8222 76.5107 16.8222 76.5107C16.8222 76.5107 16.2606 77.5165 16.4602 77.7204C16.6598 77.9244 17.1413 77.8777 17.1413 77.8777C17.1413 77.8777 23.6088 76.393 24.1878 76.2759C24.3437 76.2444 24.4537 76.2262 24.5382 76.2122C24.7676 76.1743 24.8088 76.1675 25.0678 76.0094ZM20.495 74.1015C20.1479 74.4317 19.5721 75.2198 19.5721 75.2198C19.5721 75.2198 20.6422 75.2858 21.2315 74.7253C21.8208 74.1647 21.6858 73.2094 21.6858 73.2094C21.6858 73.2094 20.8422 73.7713 20.495 74.1015Z" fill="#3BA8A0"/>
</g>
<g opacity="0.7">
<path fill-rule="evenodd" clip-rule="evenodd" d="M202.746 84.8966C201.14 84.9789 199.301 84.9789 198.676 84.8966C193.801 84.2548 189.913 80.6882 189.913 75.8673C189.913 71.0465 193.9 67.1384 198.817 67.1384C203.735 67.1384 207.722 71.0465 207.722 75.8673C207.722 78.1095 206.859 80.1542 205.442 81.7001C205.057 82.1199 205.585 82.4144 206.122 82.7135C206.648 83.007 207.182 83.3049 206.872 83.7301C206.53 84.1986 204.674 84.7978 202.746 84.8966ZM197.565 74.7762C197.565 75.5295 196.942 76.1401 196.174 76.1401C195.405 76.1401 194.783 75.5295 194.783 74.7762C194.783 74.271 195.063 73.83 195.479 73.5943C195.503 74.2511 196.043 74.7762 196.705 74.7762L197.565 74.7762ZM201.877 73.5943C201.853 74.2511 201.314 74.7762 200.651 74.7762H199.791C199.791 75.5294 200.414 76.1401 201.183 76.1401C201.951 76.1401 202.574 75.5295 202.574 74.7762C202.574 74.271 202.294 73.83 201.877 73.5943Z" fill="#2E8B84"/>
</g>
<g opacity="0.65">
<path fill-rule="evenodd" clip-rule="evenodd" d="M176.651 139.453C179.26 139.453 181.493 138.002 182.415 135.945C182.426 135.92 178.713 136.911 178.832 136.561C178.884 136.404 181.161 135.572 182.819 134.602C183.772 134.044 184.211 132.863 184.211 132.863C184.211 132.863 182.605 133.643 181.793 133.841C180.158 134.24 178.718 134.197 178.718 134.156C178.718 134.066 181.109 133.611 184.432 131.585C185.995 130.631 186.42 128.99 186.42 128.99C186.42 128.99 184.701 130.014 183.662 130.352C181.198 131.154 178.95 131.396 178.95 131.287C178.95 131.055 180.929 130.511 183.027 129.493C184.117 128.965 185.062 128.274 186.157 127.505C187.948 126.248 188.243 124.009 188.243 124.009C188.243 124.009 186.477 125.149 185.615 125.528C182.057 127.09 178.916 127.91 176.651 128.087C173.232 128.355 170.435 130.742 170.435 133.841C170.435 136.94 173.218 139.453 176.651 139.453Z" fill="#3BA8A0"/>
</g>
<g opacity="0.65">
<path fill-rule="evenodd" clip-rule="evenodd" d="M35.3882 138.162C35.3271 138.105 35.2666 138.046 35.2069 137.986C32.0526 134.83 32.0526 129.713 35.2069 126.557C38.3611 123.4 48.4117 123.189 48.4117 123.189C48.4117 123.189 49.7836 134.83 46.6294 137.986C43.828 140.789 39.4808 141.103 36.3336 138.927L38.8695 135.813L42.9234 134.937L39.6142 134.606L41.7173 132.464L44.1112 131.939L42.2182 131.378L44.1112 127.961L41.4186 130.983L40.3789 129.515L40.7449 131.939L38.8695 134.054L38.0002 131.378V134.937L35.3882 138.162Z" fill="#2E8B84"/>
</g>
<g opacity="0.6">
<path fill-rule="evenodd" clip-rule="evenodd" d="M149.607 154.643C149.607 154.643 147.631 156.229 143.699 155.572C140.715 155.074 139.124 151.783 139.124 150.015C139.124 145.821 142.226 144.866 144.323 144.866C146.421 144.866 147.789 146.912 147.789 148.496C147.789 150.08 146.669 151.466 144.927 151.466C143.184 151.466 142.668 150.242 142.668 149.117C142.668 147.991 143.578 147.595 144.408 147.595C145.238 147.595 145.522 148.304 145.522 148.913C145.522 149.522 145.049 149.74 144.655 149.74C144.261 149.74 144.222 149.542 144.072 149.332C143.921 149.123 144.264 148.332 143.699 148.332C143.134 148.332 143.028 149.242 143.028 149.242C143.028 149.242 143.234 150.998 144.927 150.968C146.619 150.937 147.422 149.628 147.188 148.332C146.955 147.036 145.698 145.659 143.492 145.937C141.286 146.215 140.385 148.446 140.782 150.829C141.179 153.213 144.033 154.594 146.277 154.097C148.52 153.6 150.755 151.975 150.755 147.854C150.755 143.733 147.188 141.256 142.935 141.664C138.682 142.072 136.042 145.793 136.211 150.264C136.38 154.734 140.619 157.169 144.204 157.294C147.789 157.42 149.986 155.344 149.986 155.344C149.986 155.344 150.481 154.902 150.287 154.558C150.093 154.214 149.607 154.643 149.607 154.643Z" fill="#3BA8A0"/>
</g>
<mask id="mask0_25_543" style="mask-type:luminance" maskUnits="userSpaceOnUse" x="80" y="46" width="77" height="42">
<path d="M156.522 46.2557H79.9999V87.325H156.522V46.2557Z" fill="white"/>
</mask>
<g mask="url(#mask0_25_543)">
<path d="M118.261 127.002C139.776 127.002 157.217 109.55 157.217 88.0211C157.217 66.4925 139.776 49.04 118.261 49.04C96.7457 49.04 79.3043 66.4925 79.3043 88.0211C79.3043 109.55 96.7457 127.002 118.261 127.002Z" fill="#6ECBC5"/>
</g>
<path d="M157.217 85.5848H79.3043V90.4574H157.217V85.5848Z" fill="#4AADA6"/>
<path d="M118.261 98.4625C124.024 98.4625 128.696 93.7877 128.696 88.0211C128.696 82.2545 124.024 77.5798 118.261 77.5798C112.498 77.5798 107.826 82.2545 107.826 88.0211C107.826 93.7877 112.498 98.4625 118.261 98.4625Z" fill="#4AADA6"/>
<path d="M118.322 93.986C121.566 93.986 124.196 91.3561 124.196 88.1119C124.196 84.8677 121.566 82.2378 118.322 82.2378C115.078 82.2378 112.448 84.8677 112.448 88.1119C112.448 91.3561 115.078 93.986 118.322 93.986Z" fill="#A8E8E4"/>
<path opacity="0.48" d="M98.7826 136.747C99.9352 136.747 100.87 135.812 100.87 134.659C100.87 133.506 99.9352 132.571 98.7826 132.571C97.63 132.571 96.6956 133.506 96.6956 134.659C96.6956 135.812 97.63 136.747 98.7826 136.747Z" fill="#3BA8A0"/>
<path opacity="0.36" d="M105.043 138.314C105.908 138.314 106.609 137.612 106.609 136.747C106.609 135.882 105.908 135.181 105.043 135.181C104.179 135.181 103.478 135.882 103.478 136.747C103.478 137.612 104.179 138.314 105.043 138.314Z" fill="#3BA8A0"/>
<path opacity="0.38" d="M110.609 136.573C111.665 136.573 112.522 135.716 112.522 134.659C112.522 133.602 111.665 132.745 110.609 132.745C109.552 132.745 108.696 133.602 108.696 134.659C108.696 135.716 109.552 136.573 110.609 136.573Z" fill="#5BBFB8"/>
<path opacity="0.36" d="M125.913 136.399C126.873 136.399 127.652 135.62 127.652 134.659C127.652 133.698 126.873 132.919 125.913 132.919C124.952 132.919 124.174 133.698 124.174 134.659C124.174 135.62 124.952 136.399 125.913 136.399Z" fill="#3BA8A0"/>
<path opacity="0.42" d="M131.478 139.01C132.727 139.01 133.739 137.997 133.739 136.747C133.739 135.498 132.727 134.485 131.478 134.485C130.23 134.485 129.217 135.498 129.217 136.747C129.217 137.997 130.23 139.01 131.478 139.01Z" fill="#3BA8A0"/>
<path opacity="0.32" d="M137.391 136.225C138.256 136.225 138.956 135.524 138.956 134.659C138.956 133.794 138.256 133.093 137.391 133.093C136.527 133.093 135.826 133.794 135.826 134.659C135.826 135.524 136.527 136.225 137.391 136.225Z" fill="#5BBFB8"/>
</svg>
